<?xml version="1.0" encoding="UTF-8"?>
<svg width="1032px" height="256px" viewBox="0 0 1032 256" version="1.1" xmlns="http://www.w3.org/2000/svg" xmlns:xlink="http://www.w3.org/1999/xlink">
    <!-- Generator: Sketch 42 (36781) - http://www.bohemiancoding.com/sketch -->
    <title>v1 copy</title>
    <desc>Created with Sketch.</desc>
    <defs></defs>
    <g id="Page-1" stroke="none" stroke-width="1" fill="none" fill-rule="evenodd">
        <g id="v1-copy" fill="#FFFFFF">
            <path d="M354,167.165039 L354,88.6396484 L363.130859,88.6396484 L363.130859,158.893555 L397.774414,158.893555 L397.774414,167.165039 L354,167.165039 Z M418.667969,167.165039 L409.751953,167.165039 L409.751953,108.297852 L418.667969,108.297852 L418.667969,167.165039 Z M409,92.3457031 C409,90.3046773 409.501297,88.8097378 410.503906,87.8608398 C411.506515,86.9119419 412.759758,86.4375 414.263672,86.4375 C415.695971,86.4375 416.93131,86.9208936 417.969727,87.8876953 C419.008143,88.854497 419.527344,90.3404848 419.527344,92.3457031 C419.527344,94.3509215 419.008143,95.845861 417.969727,96.8305664 C416.93131,97.8152719 415.695971,98.3076172 414.263672,98.3076172 C412.759758,98.3076172 411.506515,97.8152719 410.503906,96.8305664 C409.501297,95.845861 409,94.3509215 409,92.3457031 L409,92.3457031 Z M464.107422,115.226562 L449.12207,115.226562 L449.12207,167.165039 L440.206055,167.165039 L440.206055,115.226562 L429.678711,115.226562 L429.678711,111.198242 L440.206055,107.975586 L440.206055,104.699219 C440.206055,90.2330006 446.525978,83 459.166016,83 C462.281266,83 465.933573,83.6266213 470.123047,84.8798828 L467.813477,92.0234375 C464.375959,90.9134059 461.439791,90.3583984 459.004883,90.3583984 C455.638981,90.3583984 453.150399,91.4773651 451.539062,93.715332 C449.927726,95.953299 449.12207,99.542944 449.12207,104.484375 L449.12207,108.297852 L464.107422,108.297852 L464.107422,115.226562 Z M499.717773,168.239258 C491.016558,168.239258 484.150579,165.589545 479.119629,160.290039 C474.088679,154.990533 471.573242,147.632209 471.573242,138.214844 C471.573242,128.725864 473.909645,121.188504 478.58252,115.602539 C483.255394,110.016574 489.53056,107.223633 497.408203,107.223633 C504.784542,107.223633 510.621072,109.649553 514.917969,114.501465 C519.214865,119.353377 521.363281,125.753867 521.363281,133.703125 L521.363281,139.342773 L480.811523,139.342773 C480.990561,146.253615 482.736149,151.499331 486.04834,155.080078 C489.360531,158.660825 494.024384,160.451172 500.040039,160.451172 C506.377961,160.451172 512.644175,159.126315 518.838867,156.476562 L518.838867,164.425781 C515.68781,165.786465 512.706883,166.762204 509.895996,167.353027 C507.08511,167.943851 503.692403,168.239258 499.717773,168.239258 L499.717773,168.239258 Z M497.300781,114.689453 C492.574195,114.689453 488.805515,116.229151 485.994629,119.308594 C483.183742,122.388036 481.527672,126.649061 481.026367,132.091797 L511.802734,132.091797 C511.802734,126.470024 510.549492,122.16424 508.042969,119.174316 C505.536446,116.184393 501.955752,114.689453 497.300781,114.689453 L497.300781,114.689453 Z M615.948242,137.677734 C615.948242,147.274137 613.531274,154.766737 608.697266,160.155762 C603.863257,165.544786 597.185264,168.239258 588.663086,168.239258 C583.399388,168.239258 578.726583,167.003919 574.644531,164.533203 C570.56248,162.062488 567.411469,158.517601 565.191406,153.898438 C562.971343,149.279274 561.861328,143.872427 561.861328,137.677734 C561.861328,128.081332 564.260393,120.606635 569.058594,115.253418 C573.856795,109.900201 580.516884,107.223633 589.039062,107.223633 C597.274781,107.223633 603.818498,109.962863 608.67041,115.441406 C613.522322,120.919949 615.948242,128.331985 615.948242,137.677734 L615.948242,137.677734 Z M571.099609,137.677734 C571.099609,145.197303 572.603501,150.926413 575.611328,154.865234 C578.619156,158.804056 583.041312,160.773438 588.87793,160.773438 C594.714547,160.773438 599.145655,158.813008 602.171387,154.89209 C605.197118,150.971172 606.709961,145.233111 606.709961,137.677734 C606.709961,130.193973 605.197118,124.509622 602.171387,120.624512 C599.145655,116.739401 594.67874,114.796875 588.770508,114.796875 C582.93389,114.796875 578.529637,116.712546 575.557617,120.543945 C572.585597,124.375345 571.099609,130.086551 571.099609,137.677734 L571.099609,137.677734 Z M671.861328,167.165039 L671.861328,129.083984 C671.861328,124.285783 670.769217,120.70509 668.584961,118.341797 C666.400705,115.978504 662.981143,114.796875 658.326172,114.796875 C652.167287,114.796875 647.655613,116.461897 644.791016,119.791992 C641.926418,123.122087 640.494141,128.618451 640.494141,136.28125 L640.494141,167.165039 L631.578125,167.165039 L631.578125,108.297852 L638.829102,108.297852 L640.279297,116.354492 L640.708984,116.354492 C642.535165,113.454087 645.095361,111.207202 648.389648,109.61377 C651.683936,108.020337 655.354146,107.223633 659.400391,107.223633 C666.49027,107.223633 671.825503,108.933414 675.40625,112.353027 C678.986997,115.772641 680.777344,121.24215 680.777344,128.761719 L680.777344,167.165039 L671.861328,167.165039 Z M763.760742,167.165039 L737.120117,97.5556641 L736.69043,97.5556641 C737.191734,103.070015 737.442383,109.622683 737.442383,117.213867 L737.442383,167.165039 L729.009766,167.165039 L729.009766,88.6396484 L742.759766,88.6396484 L767.62793,153.415039 L768.057617,153.415039 L793.140625,88.6396484 L806.783203,88.6396484 L806.783203,167.165039 L797.652344,167.165039 L797.652344,116.569336 C797.652344,110.768526 797.902992,104.466505 798.404297,97.6630859 L797.974609,97.6630859 L771.119141,167.165039 L763.760742,167.165039 Z M863.179688,167.165039 L861.407227,158.786133 L860.977539,158.786133 C858.041326,162.474302 855.11411,164.971836 852.195801,166.278809 C849.277492,167.585781 845.634136,168.239258 841.265625,168.239258 C835.429007,168.239258 830.854672,166.735367 827.54248,163.727539 C824.230289,160.719712 822.574219,156.440783 822.574219,150.890625 C822.574219,139.002545 832.08096,132.772138 851.094727,132.199219 L861.084961,131.876953 L861.084961,128.224609 C861.084961,123.605446 860.091319,120.194835 858.104004,117.992676 C856.116689,115.790516 852.938824,114.689453 848.570312,114.689453 C843.664689,114.689453 838.114614,116.193344 831.919922,119.201172 L829.180664,112.379883 C832.081069,110.804354 835.258935,109.569015 838.714355,108.673828 C842.169776,107.778641 845.634097,107.331055 849.107422,107.331055 C856.125686,107.331055 861.326643,108.888656 864.710449,112.003906 C868.094255,115.119156 869.786133,120.114223 869.786133,126.989258 L869.786133,167.165039 L863.179688,167.165039 Z M843.038086,160.880859 C848.588244,160.880859 852.947738,159.359065 856.116699,156.31543 C859.28566,153.271795 860.870117,149.01077 860.870117,143.532227 L860.870117,138.214844 L851.954102,138.59082 C844.864222,138.841473 839.752783,139.942536 836.619629,141.894043 C833.486475,143.84555 831.919922,146.880188 831.919922,150.998047 C831.919922,154.220719 832.895661,156.673494 834.847168,158.356445 C836.798675,160.039396 839.528954,160.880859 843.038086,160.880859 L843.038086,160.880859 Z M915.010742,107.223633 C917.624688,107.223633 919.970042,107.438474 922.046875,107.868164 L920.811523,116.139648 C918.376615,115.602536 916.228199,115.333984 914.366211,115.333984 C909.603817,115.333984 905.530779,117.267559 902.146973,121.134766 C898.763167,125.001972 897.071289,129.818005 897.071289,135.583008 L897.071289,167.165039 L888.155273,167.165039 L888.155273,108.297852 L895.513672,108.297852 L896.53418,119.201172 L896.963867,119.201172 C899.148123,115.369773 901.779933,112.4157 904.859375,110.338867 C907.938817,108.262034 911.322573,107.223633 915.010742,107.223633 L915.010742,107.223633 Z M971.03125,151.105469 C971.03125,156.584012 968.990255,160.80923 964.908203,163.78125 C960.826151,166.75327 955.097042,168.239258 947.720703,168.239258 C939.914675,168.239258 933.827496,167.003919 929.458984,164.533203 L929.458984,156.261719 C932.287775,157.694018 935.322412,158.821936 938.562988,159.645508 C941.803564,160.46908 944.927719,160.880859 947.935547,160.880859 C952.590518,160.880859 956.171211,160.137866 958.677734,158.651855 C961.184257,157.165845 962.4375,154.901057 962.4375,151.857422 C962.4375,149.565744 961.443858,147.605314 959.456543,145.976074 C957.469228,144.346834 953.593128,142.422212 947.828125,140.202148 C942.349582,138.161123 938.455578,136.379728 936.145996,134.85791 C933.836414,133.336093 932.117681,131.608408 930.989746,129.674805 C929.861811,127.741201 929.297852,125.431654 929.297852,122.746094 C929.297852,117.947893 931.249329,114.161309 935.152344,111.38623 C939.055358,108.611151 944.408495,107.223633 951.211914,107.223633 C957.549836,107.223633 963.744436,108.512682 969.795898,111.09082 L966.626953,118.341797 C960.71872,115.906889 955.365584,114.689453 950.567383,114.689453 C946.342101,114.689453 943.155284,115.351881 941.006836,116.676758 C938.858388,118.001634 937.78418,119.827788 937.78418,122.155273 C937.78418,123.730802 938.187008,125.073562 938.992676,126.183594 C939.798344,127.293625 941.096345,128.34993 942.886719,129.352539 C944.677092,130.355148 948.114558,131.805329 953.199219,133.703125 C960.181676,136.245455 964.899239,138.805651 967.352051,141.383789 C969.804863,143.961927 971.03125,147.202454 971.03125,151.105469 L971.03125,151.105469 Z" id="Life-on-Mars"></path>
            <path d="M260.569092,133.175293 C257.786704,136.951765 257.130055,140.074533 257,143.826062 L257,188.0078 C257,191.311214 254.316851,194 251.007019,194 L220.002197,194 C218.680884,194 216.413227,192.413863 215.960712,191.1754 L181.146623,95.8947368 L165.824587,53.9607411 C162.488516,44.8304427 152.719469,38 143.001964,38 L89.992981,38 C75.6370142,38 64,49.643528 64,63.9922004 L64,101 C64.0340741,104.002186 63,108 60,111 C55,116 49,116 46,116 L46,125.5 L46,136 C49,136 55,136 60,141 C63,144 64.0340741,147.997814 64,151 L64,188.0078 C64,202.356472 75.6370142,214 89.992981,214 L98,214 L105,194 L89.992981,194 C86.683149,194 84,191.311214 84,188.0078 L84,143.826062 C83.8699453,140.074533 83.2132963,136.951765 80.4309082,133.175293 C76.2741699,127.533447 66,126 66,126 C66,126 76.2741699,124.466553 80.4309082,118.824707 C83.2132963,115.048235 83.8699453,111.925467 84,108.173938 L84,63.9922004 C84,60.688786 86.683149,58 89.992981,58 L143.001964,58 C144.321108,58 146.58579,59.5834483 147.039288,60.8246002 L159.853377,95.8947368 L117,214 L138,214 L170.5,125.032864 L197.175413,198.039259 C200.510007,207.165514 210.281082,214 220.002197,214 L251.007019,214 C265.362986,214 277,202.356472 277,188.0078 L277,151 C276.965926,147.997814 278,144 281,141 C286,136 292,136 295,136 L295,126.5 L295,116 C292,116 286,116 281,111 C278,108 276.965926,104.002186 277,101 L277,63.9922004 C277,49.643528 265.362986,38 251.007019,38 L183,38 L190,58 L251.007019,58 C254.316851,58 257,60.688786 257,63.9922004 L257,108.173938 C257.130055,111.925467 257.786704,115.048235 260.569092,118.824707 C264.721712,124.460963 274.979647,125.996957 274.99997,125.999995 C274.979127,126.003121 264.721606,127.53918 260.569092,133.175293 Z" id="Combined-Shape"></path>
        </g>
    </g>
</svg>
